<?xml version="1.0" encoding="UTF-8" standalone="no"?>
<svg
   xmlns:dc="http://purl.org/dc/elements/1.1/"
   xmlns:cc="http://creativecommons.org/ns#"
   xmlns:rdf="http://www.w3.org/1999/02/22-rdf-syntax-ns#"
   xmlns:svg="http://www.w3.org/2000/svg"
   xmlns="http://www.w3.org/2000/svg"
   xmlns:sodipodi="http://sodipodi.sourceforge.net/DTD/sodipodi-0.dtd"
   xmlns:inkscape="http://www.inkscape.org/namespaces/inkscape"
   sodipodi:docname="right_click.svg"
   inkscape:version="1.0rc1 (09960d6f05, 2020-04-09)"
   id="svg8"
   version="1.1"
   viewBox="0 0 64 96"
   height="96mm"
   width="64mm">
  <defs
     id="defs2" />
  <sodipodi:namedview
     inkscape:window-maximized="1"
     inkscape:window-y="-8"
     inkscape:window-x="-8"
     inkscape:window-height="1377"
     inkscape:window-width="2560"
     fit-margin-bottom="0"
     fit-margin-right="0"
     fit-margin-left="0"
     fit-margin-top="0"
     showgrid="false"
     inkscape:document-rotation="0"
     inkscape:current-layer="layer1"
     inkscape:document-units="mm"
     inkscape:cy="78.792784"
     inkscape:cx="557.02574"
     inkscape:zoom="0.7"
     inkscape:pageshadow="2"
     inkscape:pageopacity="0.0"
     borderopacity="1.0"
     bordercolor="#666666"
     pagecolor="#ffffff"
     id="base" />
  <metadata
     id="metadata5">
    <rdf:RDF>
      <cc:Work
         rdf:about="">
        <dc:format>image/svg+xml</dc:format>
        <dc:type
           rdf:resource="http://purl.org/dc/dcmitype/StillImage" />
        <dc:title></dc:title>
      </cc:Work>
    </rdf:RDF>
  </metadata>
  <g
     transform="translate(-24.436406,-64.709582)"
     id="layer1"
     inkscape:groupmode="layer"
     inkscape:label="Calque 1">
    <g
       style="fill:#ffffff;stroke:none"
       transform="matrix(-0.26874835,0,0,0.26923109,104.35034,64.709582)"
       id="g891">
      <g
         style="fill:#ffffff;stroke:none"
         id="g835">
	<path
   style="fill:#ffffff;stroke:none"
   inkscape:connector-curvature="0"
   d="M 181.563,0 C 120.762,0 59.215,30.525 59.215,88.873 V 237.5 c 0,65.658 53.412,119.071 119.071,119.071 65.658,0 119.07,-53.413 119.07,-119.071 V 88.873 C 297.356,27.809 237.336,0 181.563,0 Z m 93.382,237.5 c 0,53.303 -43.362,96.657 -96.659,96.657 -53.299,0 -96.657,-43.354 -96.657,-96.657 v -69.513 c 20.014,6.055 57.685,15.215 102.221,15.215 28.515,0 59.831,-3.809 91.095,-14.567 z m 0,-92.706 C 193.262,176.027 106.592,152.51 81.629,144.43 V 88.873 c 0,-43.168 51.489,-66.46 99.934,-66.46 46.481,0 93.382,20.547 93.382,66.46 z M 190.893,48.389 v 81.248 c 0,6.187 -5.023,11.208 -11.206,11.208 -6.185,0 -11.207,-5.021 -11.207,-11.208 V 48.389 c 0,-6.186 5.021,-11.207 11.207,-11.207 6.182,0 11.206,5.021 11.206,11.207 z M 154.938,40.068 V 143.73 C 139.059,146.532 92.372,133.459 92.372,133.459 80.233,41.004 154.938,40.068 154.938,40.068 Z"
   id="path833" />

</g>
      <g
         style="fill:#ffffff;stroke:none"
         id="g837">
</g>
      <g
         style="fill:#ffffff;stroke:none"
         id="g839">
</g>
      <g
         style="fill:#ffffff;stroke:none"
         id="g841">
</g>
      <g
         style="fill:#ffffff;stroke:none"
         id="g843">
</g>
      <g
         style="fill:#ffffff;stroke:none"
         id="g845">
</g>
      <g
         style="fill:#ffffff;stroke:none"
         id="g847">
</g>
      <g
         style="fill:#ffffff;stroke:none"
         id="g849">
</g>
      <g
         style="fill:#ffffff;stroke:none"
         id="g851">
</g>
      <g
         style="fill:#ffffff;stroke:none"
         id="g853">
</g>
      <g
         style="fill:#ffffff;stroke:none"
         id="g855">
</g>
      <g
         style="fill:#ffffff;stroke:none"
         id="g857">
</g>
      <g
         style="fill:#ffffff;stroke:none"
         id="g859">
</g>
      <g
         style="fill:#ffffff;stroke:none"
         id="g861">
</g>
      <g
         style="fill:#ffffff;stroke:none"
         id="g863">
</g>
      <g
         style="fill:#ffffff;stroke:none"
         id="g865">
</g>
    </g>
  </g>
</svg>
